                          <svg
                            preserveAspectRatio="none"
                            viewBox="0 0 58 58"
                            fill="none"
                            xmlns="http://www.w3.org/2000/svg"
                            class="svg-grid"
                          >
                            <path
                              d="M48.9375 23.2C50.7665 24.2532 52.2496 25.8159 53.2057 27.6975C54.1619 29.579 54.5499 31.6982 54.3224 33.7964C54.0948 35.8947 53.2617 37.8815 51.9245 39.5144C50.5873 41.1473 48.8038 42.3558 46.7915 42.9925C46.0803 46.2199 44.2883 49.1076 41.712 51.1776C39.1358 53.2476 35.9299 54.3756 32.625 54.375H27.1875C26.7068 54.375 26.2458 54.1841 25.9059 53.8441C25.566 53.5042 25.375 53.0432 25.375 52.5625C25.375 52.0818 25.566 51.6208 25.9059 51.2809C26.2458 50.941 26.7068 50.75 27.1875 50.75H32.625C34.8748 50.7507 37.0694 50.0538 38.9066 48.7554C40.7439 47.457 42.1334 45.6209 42.8838 43.5H41.6875C41.2068 43.5 40.7458 43.3091 40.4059 42.9691C40.066 42.6292 39.875 42.1682 39.875 41.6875V23.5625C39.875 23.0818 40.066 22.6208 40.4059 22.2809C40.7458 21.941 41.2068 21.75 41.6875 21.75H43.5C44.0873 21.75 44.6637 21.7971 45.2292 21.8878C44.8211 17.8672 42.9352 14.1413 39.9369 11.4319C36.9385 8.72246 33.0412 7.22243 29 7.22243C24.9589 7.22243 21.0615 8.72246 18.0632 11.4319C15.0649 14.1413 13.179 17.8672 12.7709 21.8878C13.3427 21.7962 13.9209 21.7501 14.5 21.75H16.3125C16.7932 21.75 17.2542 21.941 17.5942 22.2809C17.9341 22.6208 18.125 23.0818 18.125 23.5625V41.6875C18.125 42.1682 17.9341 42.6292 17.5942 42.9691C17.2542 43.3091 16.7932 43.5 16.3125 43.5H14.5C12.1038 43.5027 9.77385 42.7139 7.87207 41.2561C5.9703 39.7984 4.60322 37.7534 3.98323 35.4388C3.36325 33.1242 3.52508 30.6696 4.44358 28.4564C5.36209 26.2433 6.98583 24.3954 9.06253 23.2C9.06253 17.9123 11.1631 12.8411 14.9021 9.10207C18.6411 5.36306 23.7123 3.26251 29 3.26251C34.2878 3.26251 39.359 5.36306 43.098 9.10207C46.837 12.8411 48.9375 17.9123 48.9375 23.2ZM14.5 25.375C12.5772 25.375 10.7331 26.1388 9.3735 27.4985C8.01386 28.8581 7.25003 30.7022 7.25003 32.625C7.25003 34.5478 8.01386 36.3919 9.3735 37.7515C10.7331 39.1112 12.5772 39.875 14.5 39.875V25.375ZM50.75 32.625C50.75 30.7022 49.9862 28.8581 48.6266 27.4985C47.2669 26.1388 45.4229 25.375 43.5 25.375V39.875C45.4229 39.875 47.2669 39.1112 48.6266 37.7515C49.9862 36.3919 50.75 34.5478 50.75 32.625Z"
                              fill="white"
                            />
                          </svg>