 <svg
                            preserveAspectRatio="none"
                            viewBox="0 0 58 58"
                            fill="none"
                            xmlns="http://www.w3.org/2000/svg"
                            class="svg-grid"
                          >
                            <path
                              d="M30.3198 6.6726C29.5187 6.2824 28.5824 6.2824 27.7898 6.66818L7.94442 16.5465H50.1563L30.3198 6.6726ZM26.7652 4.58675C28.2081 3.88435 29.8934 3.88435 31.3446 4.59128L52.8443 15.293C54.639 16.1669 54.0175 18.8665 52.0209 18.8665H6.08026C4.08606 18.8665 3.46256 16.1725 5.25093 15.2956L26.7651 4.58675H26.7652ZM51.6201 51.4729V49.1529H6.38006V51.4729H51.6201ZM52.2001 53.7929H5.80006C4.83926 53.7929 4.06006 53.0137 4.06006 52.0529V48.5729C4.06006 47.6121 4.83926 46.8329 5.80006 46.8329H52.2001C53.1609 46.8329 53.9401 47.6121 53.9401 48.5729V52.0529C53.9401 53.0137 53.1609 53.7929 52.2001 53.7929ZM35.5443 30.6108C37.8849 31.419 39.4875 33.6303 39.4875 36.1472C39.4875 39.3815 36.8662 42.0029 33.6318 42.0029C31.4691 42.0029 29.5159 40.8217 28.4939 38.959C28.1857 38.3974 27.4806 38.1919 26.9189 38.5C26.3572 38.8082 26.1517 39.5133 26.4599 40.075C27.8854 42.673 30.6137 44.3229 33.6318 44.3229C38.1475 44.3229 41.8075 40.6629 41.8075 36.1472C41.8075 32.6334 39.5704 29.5466 36.3014 28.4179C35.6959 28.2088 35.0355 28.5302 34.8263 29.1358C34.6172 29.7413 34.9387 30.4017 35.5442 30.6109L35.5443 30.6108Z"
                              fill="white"
                            />
                            <path
                              d="M30.1836 28.6372C30.1836 25.4035 27.5617 22.7815 24.3279 22.7815C21.0942 22.7815 18.4723 25.4035 18.4723 28.6372C18.4723 31.8709 21.0942 34.4929 24.3279 34.4929C27.5617 34.4929 30.1836 31.8709 30.1836 28.6372ZM32.5036 28.6372C32.5036 33.1523 28.843 36.8129 24.3279 36.8129C19.8129 36.8129 16.1523 33.1523 16.1523 28.6372C16.1523 24.1222 19.8129 20.4615 24.3279 20.4615C28.843 20.4615 32.5036 24.1222 32.5036 28.6372ZM8.26172 17.7064V47.9928C8.26172 48.6335 8.78106 49.1528 9.42172 49.1528C10.0624 49.1528 10.5817 48.6335 10.5817 47.9928V17.7064C10.5817 17.0657 10.0624 16.5464 9.42172 16.5464C8.78106 16.5464 8.26172 17.0657 8.26172 17.7064ZM47.5083 17.7064V47.9928C47.5083 48.6335 48.0277 49.1528 48.6683 49.1528C49.309 49.1528 49.8283 48.6335 49.8283 47.9928V17.7064C49.8283 17.0657 49.309 16.5464 48.6683 16.5464C48.0277 16.5464 47.5083 17.0657 47.5083 17.7064Z"
                              fill="white"
                            />
                          </svg>