<svg
                            preserveAspectRatio="none"
                            class="svg-grid _no-rote"
                            viewBox="0 0 83 83"
                            fill="none"
                            xmlns="http://www.w3.org/2000/svg"
                          >
                            <g clipPath="url(#clip0_1_180)">
                              <path
                                d="M56.842 24.0211L50.1664 30.6968L52.6503 33.1806L59.3259 26.505L56.842 24.0211Z"
                                fill="white"
                              />
                              <path
                                d="M3.16861 38.6005L7.07221 42.5041L8.25135 40.2727L6.57914 38.6005L40.687 4.4926L62.4271 26.2327L35.2857 53.3741L36.9024 55.1706L65.8376 26.2353L40.6857 1.0834L3.16861 38.6005Z"
                                fill="white"
                              />
                              <path
                                d="M31.665 66.4941L34.9314 63.2276L27.6979 55.9941L22.5861 54.4118L22.9563 53.7932L21.0778 51.9147C18.5741 53.2208 15.4716 52.926 13.2534 51.0251L14.7485 49.9081L15.5456 50.7052L18.972 47.2788L18.4062 46.713L19.0104 46.1089L19.5735 46.672L22.9999 43.2457L22.2226 42.4684L23.1413 41.2112C24.8043 42.9985 26.2227 46.1962 23.9173 49.189L25.6715 50.9431L25.6807 50.9339L26.6113 50.6034L27.9914 55.4337L35.3584 62.8006L37.0954 61.0637L38.7398 59.4192L33.9625 55.8791C33.9625 55.8791 32.5295 53.9333 31.0569 51.8447L34.1832 35.8086L33.1416 35.5363L35.7417 22.5274L34.5798 22.2088L31.9756 35.227L32.47 35.3592L30.6881 34.8965L29.3503 46.2332C28.651 45.3092 28.4488 44.5914 27.2313 43.2655C25.1572 40.9984 18.1286 33.7187 11.8813 39.966C11.2243 40.623 10.5343 41.4743 10.3492 41.9581C10.1668 42.4419 10.447 42.8438 10.3043 43.1346C10.1549 43.4347 9.80591 43.7255 9.70148 44.0177C8.09801 48.6007 11.839 52.1276 11.839 52.1276L19.7572 59.131L27.2498 68.3659L29.386 66.5866L24.1552 59.7986C26.224 60.9235 28.1434 61.9467 28.1434 61.9467L31.665 66.4941ZM18.2066 47.2775L15.543 49.9411L14.1867 48.5848L16.8504 45.9212L18.2066 47.2775ZM22.2371 43.247L19.5735 45.9106L18.2172 44.5543L20.8822 41.8894L22.2371 43.247ZM12.3995 50.1341C13.6831 48.6628 14.1537 46.0217 12.7643 44.3918C15.9515 44.0917 18.4908 41.6924 20.7328 39.818C21.1082 39.6831 21.8154 40.0123 22.5544 40.6455L21.6436 41.8894L20.8822 41.128L17.4558 44.5543L18.2489 45.3475L17.6448 45.9516L16.8517 45.1585L13.4253 48.5848L14.1682 49.3278L12.6559 50.4593C12.57 50.3522 12.4881 50.2438 12.3995 50.1341Z"
                                fill="white"
                              />
                              <path
                                d="M39.1205 59.9058L32.0682 66.9026L36.6499 71.799L38.8231 69.6258L45.2555 76.0582C44.2813 77.0668 43.8239 77.8308 44.2694 78.2763C44.7387 78.7456 45.8596 77.9366 45.8596 77.9366L46.4968 77.2994L48.0249 75.7713L48.1003 75.696C48.1003 75.696 47.7698 75.3655 47.512 75.1077C47.4208 75.0165 47.3071 74.9504 47.1749 74.9213L40.3526 68.099L41.1642 67.2873L44.1094 69.672L47.7222 74.1546C47.7077 74.3833 47.7843 74.5657 47.9205 74.7019C48.1756 74.957 48.5087 75.2901 48.5087 75.2901L48.5814 75.2174L50.1228 73.6761L50.7507 73.0482C50.7507 73.0482 51.5623 71.9298 51.0904 71.4579C50.6648 71.0323 49.9324 71.4447 48.9873 72.3396L45.5225 68.2589L42.6461 65.8107L44.1041 64.3527L39.1205 59.9058Z"
                                fill="white"
                              />
                            </g>
                            <defs>
                              <clipPath id="clip0_1_180">
                                <rect
                                  width="{58}"
                                  height="{58}"
                                  fill="white"
                                />
                              </clipPath>
                            </defs>
                          </svg>