<svg
                            preserveAspectRatio="none"
                            viewBox="0 0 58 58"
                            fill="none"
                            xmlns="http://www.w3.org/2000/svg"
                            class="svg-grid"
                          >
                            <path
                              fillRule="evenodd"
                              clipRule="evenodd"
                              d="M12.6875 3.63562C12.2068 3.63567 11.7458 3.82664 11.4059 4.16654C11.066 4.50644 10.875 4.96743 10.875 5.44812V7.26062H7.25C5.26943 7.26062 3.625 8.90505 3.625 10.8856V50.7606C3.625 52.7412 5.26943 54.3856 7.25 54.3856H29H50.75C52.7306 54.3856 54.375 52.7412 54.375 50.7606V10.8856C54.375 8.90505 52.7306 7.26062 50.75 7.26062H47.125V5.44812C47.125 4.96743 46.934 4.50644 46.5941 4.16654C46.2542 3.82664 45.7932 3.63567 45.3125 3.63562H36.25C33.2887 3.63562 30.6565 5.08162 29 7.29602C27.3435 5.08162 24.7113 3.63562 21.75 3.63562H12.6875ZM14.5 7.26062H21.75C24.7745 7.26062 27.1875 9.6736 27.1875 12.6981V45.5214C25.6552 44.336 23.8253 43.5106 21.75 43.5106H14.5V9.07312V7.26062ZM36.25 7.26062H43.5V9.07312V43.5106H36.25C34.1747 43.5106 32.3448 44.336 30.8125 45.5214V12.6981C30.8125 9.6736 33.2255 7.26062 36.25 7.26062ZM7.25 10.8856H10.875V45.3231C10.875 45.8038 11.066 46.2648 11.4059 46.6047C11.7458 46.9446 12.2068 47.1356 12.6875 47.1356H21.75C24.1364 47.1356 26.1359 48.641 26.876 50.7606H7.25V10.8856ZM47.125 10.8856H50.75V50.7606H31.124C31.8641 48.641 33.8636 47.1356 36.25 47.1356H45.3125C45.7932 47.1356 46.2542 46.9446 46.5941 46.6047C46.934 46.2648 47.125 45.8038 47.125 45.3231V10.8856Z"
                              fill="white"
                            />
                          </svg>