                          <svg
                            preserveAspectRatio="none"
                            viewBox="0 0 70 70"
                            fill="none"
                            xmlns="http://www.w3.org/2000/svg"
                            class="svg-grid"
                          >
                            <path
                              d="M27.825 57.3125C27.7375 57.3125 27.65 57.3125 27.5625 57.3125C26.95 57.225 26.5125 56.875 26.1625 56.35L21.875 48.5625L14.0875 44.275C13.5625 44.0125 13.2125 43.4875 13.125 42.875C13.0375 42.2625 13.2125 41.7375 13.65 41.3L17.5875 37.3625C18.025 36.925 18.6375 36.75 19.25 36.8375L23.7125 37.625L29.575 31.7625L15.4 24.7625C14.875 24.5 14.525 23.975 14.35 23.3625C14.175 22.75 14.4375 22.1375 14.875 21.7L19.25 17.325C19.6875 16.8875 20.3875 16.7125 21 16.8L39.55 21.6125L46.025 15.1375C48.3 12.8625 53.6375 11.2 56.35 13.9125C57.575 15.1375 58.0125 17.15 57.575 19.425C57.225 21.2625 56.2625 23.0125 55.125 24.15L48.65 30.625L53.4625 49.175C53.6375 49.7875 53.4625 50.4875 52.9375 50.925L48.5625 55.3C48.125 55.7375 47.5125 55.9125 46.9 55.825C46.2875 55.7375 45.7625 55.3875 45.5 54.775L38.5 40.6L32.6375 46.4625L33.425 50.925C33.5125 51.5375 33.3375 52.15 32.9 52.5875L28.9625 56.525C28.7875 57.1375 28.35 57.3125 27.825 57.3125ZM18.025 42.175L24.15 45.5C24.5 45.675 24.675 45.9375 24.85 46.2L28.175 52.325L29.6625 50.8375L28.9625 46.375C28.875 45.7625 29.05 45.15 29.4875 44.7125L37.8875 36.3125C38.325 35.875 38.9375 35.7 39.55 35.7875C40.1625 35.875 40.6875 36.225 40.95 36.8375L47.95 51.0125L49.7 49.2625L44.8875 30.7125C44.7125 30.1 44.8875 29.4 45.4125 28.9625L52.5875 21.7875C53.9 20.475 54.6 17.5 53.8125 16.7125C53.025 15.925 50.05 16.7125 48.7375 17.9375L41.5625 25.1125C41.125 25.55 40.425 25.725 39.8125 25.6375L21.175 20.825L19.425 22.575L33.6 29.575C34.125 29.8375 34.475 30.3625 34.65 30.975C34.825 31.5875 34.5625 32.2 34.125 32.6375L25.725 41.0375C25.2875 41.475 24.675 41.65 24.0625 41.5625L19.6 40.775L18.025 42.175Z"
                              fill="white"
                            />
                          </svg>