                          <svg
                            preserveAspectRatio="none"
                            viewBox="0 0 58 58"
                            fill="none"
                            xmlns="http://www.w3.org/2000/svg"
                            class="svg-grid"
                          >
                            <path
                              d="M45.6712 8.41101C44.1488 9.27467 42.3103 9.99004 40.6767 9.71737C38.1009 9.28883 31.4618 9.31715 27.0551 10.9192C22.6483 12.5211 14.6363 17.5287 12.2329 18.3314C9.8284 19.1318 9.62869 22.3379 15.0366 22.9377C20.4456 23.5396 25.2525 20.1329 26.4542 19.5331C27.656 18.9312 39.2743 20.7349 39.2743 20.7349L42.9296 21.6356L51.3571 33.0271C52.8357 31.7425 55.7606 29.0163 56.5011 26.9444C56.7705 26.1897 57.1716 25.4962 57.6134 24.88L57.706 25.0075C59.6897 20.5736 51.1836 6.46552 45.6712 8.41101Z"
                              fill="white"
                            />
                            <path
                              d="M40.6767 23.2889L38.9057 23.1102C36.5819 22.7503 30.0104 21.8146 27.5426 21.8146C27.4347 21.8146 27.3485 21.8157 27.2842 21.8189C27.1849 21.8756 27.0704 21.941 26.9582 22.0065C25.2067 23.0261 21.1065 25.4133 16.33 25.4133C15.8055 25.4133 15.2819 25.3838 14.7717 25.3271C13.9975 25.241 13.3169 25.1079 12.715 24.9399C13.2853 25.1897 13.8098 25.5473 14.2602 26.0064C14.9658 26.7284 15.4041 27.6139 15.5776 28.5397C15.9888 28.4295 16.4151 28.3685 16.8513 28.3685C18.1883 28.3685 19.438 28.8941 20.3726 29.8494C21.2919 30.7894 21.7914 32.0325 21.7772 33.3477C21.7772 33.3608 21.775 33.374 21.775 33.387C23.1053 33.3914 24.3508 33.917 25.282 34.868C26.2025 35.808 26.7019 37.0511 26.6878 38.3663C26.6823 38.8199 26.6125 39.2627 26.4904 39.6881C27.4347 39.8854 28.2995 40.3554 28.9909 41.0621C30.8906 43.0043 30.8567 46.1286 28.9157 48.0283L27.9429 48.9792C27.9472 48.9792 27.9528 48.9792 27.9571 48.9792C29.5896 48.8614 30.9658 47.8539 31.3508 46.3358C32.0159 46.8603 32.8534 47.1754 33.7662 47.1754C35.9232 47.1754 37.6724 45.4274 37.6724 43.2693C37.6724 43.0425 37.6484 42.8221 37.6114 42.6061C38.2985 43.2049 39.1937 43.5701 40.1763 43.5701C42.3334 43.5701 44.0825 41.8209 44.0825 39.664C44.5448 39.8569 45.0519 39.9648 45.5841 39.9648C47.7411 39.9648 49.4903 38.2157 49.4903 36.0587C49.4903 34.4207 48.6888 33.3542 46.7859 31.1513L40.6767 23.2889Z"
                              fill="white"
                            />
                            <path
                              d="M12.5425 27.6881C11.5676 26.6925 9.97114 26.6749 8.97551 27.6488L5.37135 31.1766C4.37572 32.1505 4.35828 33.7469 5.33216 34.7426C6.30604 35.7382 7.90251 35.7556 8.89825 34.7806L12.5034 31.254C13.4989 30.2802 13.5164 28.6837 12.5425 27.6881Z"
                              fill="white"
                            />
                            <path
                              d="M18.6538 31.531C17.6799 30.5343 16.0835 30.5168 15.0877 31.4917L10.2807 36.194C9.28512 37.1689 9.26881 38.7654 10.2427 39.7599C11.2165 40.7567 12.8129 40.774 13.8097 39.7992L18.6155 35.0969C19.6113 34.1231 19.6287 32.5267 18.6538 31.531Z"
                              fill="white"
                            />
                            <path
                              d="M23.5643 36.5495C22.5905 35.5539 20.9941 35.5353 19.9984 36.5103L15.1915 41.2136C14.1958 42.1874 14.1784 43.7839 15.1533 44.7806C16.1272 45.7751 17.7236 45.7927 18.7194 44.8177L23.5264 40.1154C24.5219 39.1406 24.5381 37.544 23.5643 36.5495Z"
                              fill="white"
                            />
                            <path
                              d="M27.2731 42.7436C26.2983 41.748 24.7018 41.7294 23.7073 42.7043L20.9035 45.4481C19.9078 46.4219 19.8904 48.0183 20.8643 49.014C21.838 50.0096 23.4356 50.026 24.4313 49.0533L27.235 46.3096C28.2296 45.3357 28.247 43.7393 27.2731 42.7436Z"
                              fill="white"
                            />
                            <path
                              d="M10.7389 24.5255C11.1184 24.5255 11.4891 24.5735 11.849 24.6552C8.82067 23.4938 8.31906 21.3696 8.23942 20.6204C8.02566 18.6028 9.32556 16.7654 11.4717 16.05C12.3354 15.7622 14.6004 14.5276 16.7891 13.3347C19.1381 12.0532 21.716 10.6476 23.9592 9.61372C21.1172 9.38376 18.4543 9.48073 17.0312 9.71737C15.5011 9.97248 13.7912 9.36076 12.3289 8.57346C6.81627 6.62694 -1.68968 20.7349 0.293991 25.1701C0.654905 25.712 0.978889 26.3053 1.20681 26.9444C1.54371 27.8866 2.33317 28.964 3.23296 29.9803C3.37365 29.7993 3.52307 29.6226 3.68994 29.4579L7.29409 25.9302C8.22085 25.025 9.44326 24.5255 10.7389 24.5255Z"
                              fill="white"
                            />
                          </svg>