                          <svg
                            preserveAspectRatio="none"
                            viewBox="0 0 58 58"
                            fill="none"
                            xmlns="http://www.w3.org/2000/svg"
                            class="svg-grid"
                          >
                            <g clipPath="url(#clip0_1_186)">
                              <path
                                d="M48.1411 19.1411C48.142 13.8592 45.9968 9.0659 42.5344 5.60606C39.0752 2.14441 34.2812 -0.000905963 29 2.87008e-07C23.7189 -0.000905963 18.9248 2.14441 15.4658 5.60686C12.0033 9.0659 9.85806 13.8592 9.85886 19.1411C9.85806 22.674 10.8229 25.9915 12.4981 28.831C12.499 28.8319 12.4999 28.8327 12.4999 28.8327C12.5052 28.8433 12.5105 28.8541 12.516 28.8629L12.5177 28.8621C13.6926 30.9521 15.383 33.0198 16.7555 34.9931C17.4445 35.9803 18.0507 36.9381 18.4699 37.8138C18.8927 38.6906 19.1161 39.4739 19.1259 40.1033V50.709C19.1268 53.9819 21.7776 56.6327 25.0506 56.6336H26.2459C26.8859 57.4589 27.8758 58 29 58C30.1242 58 31.114 57.4589 31.7541 56.6337H32.9494C36.2225 56.6328 38.8732 53.982 38.874 50.7091V38.7076H37.5068H21.6743C21.5114 37.9974 21.2578 37.3057 20.9356 36.631C20.1479 34.9967 19.0076 33.4158 17.8789 31.8725C16.7493 30.3352 15.6296 28.8372 14.8872 27.5002L14.8747 27.478L14.8685 27.469C13.423 25.0284 12.5943 22.1881 12.5934 19.1411C12.5943 14.606 14.4278 10.5132 17.3991 7.54023C20.372 4.56807 24.4649 2.7354 29 2.73438C33.5351 2.73529 37.6279 4.56807 40.6009 7.54023C43.572 10.5132 45.4057 14.6059 45.4065 19.1411C45.4057 22.1881 44.577 25.0284 43.1306 27.469L43.1207 27.486L43.111 27.5038C41.9912 29.5234 40.5073 30.9495 38.882 31.8858C37.2575 32.8204 35.4844 33.2593 33.8173 33.2593C31.8723 33.2611 30.0921 32.6602 28.8513 31.6348C28.2282 31.1221 27.7343 30.5062 27.3889 29.7861C27.0443 29.065 26.845 28.2337 26.8441 27.2591C26.8441 27.1594 26.8646 27.0454 26.8691 26.9421C28.9671 25.064 34.7369 25.2028 35.9126 18.9898C36.6595 15.0367 34.59 11.7807 34.242 9.41922C23.6077 8.50776 18.7468 18.0782 23.8409 25.6665C23.9745 25.8649 24.0839 26.0216 24.1765 26.1631C24.1374 26.5342 24.1098 26.901 24.1098 27.2589C24.1088 28.6145 24.3964 29.8695 24.9224 30.9661C25.711 32.6155 27.0213 33.8884 28.5781 34.7268C30.1368 35.568 31.9446 35.9926 33.8174 35.9935C35.9599 35.9926 38.1958 35.4336 40.2458 34.2551C42.285 33.0838 44.1311 31.291 45.4832 28.8628C45.4841 28.8611 45.485 28.8592 45.4867 28.8575C45.4922 28.8468 45.4983 28.8379 45.5037 28.828L45.5028 28.8272C47.178 25.9888 48.142 22.673 48.1411 19.1411ZM21.8603 41.4421H36.1395V45.6987L21.8603 42.6625V41.4421ZM21.8603 44.5263L36.1395 47.5626V50.7091C36.1395 50.9041 36.1155 51.0928 36.0826 51.2771L21.8603 48.2533V44.5263ZM21.8603 50.1181L35.2121 52.9567C35.2094 52.9594 35.2076 52.962 35.2049 52.9648C34.6237 53.5443 33.8349 53.8984 32.9493 53.8993H25.0504C24.1648 53.8984 23.3761 53.5442 22.7949 52.9648C22.2155 52.3835 21.8612 51.5949 21.8603 50.7092V50.1181ZM25.8863 22.6303C25.8863 21.8951 25.8863 20.6685 27.2357 17.1099C28.5852 13.5521 32.0201 11.2218 32.2657 11.7121C27.9728 16.8651 27.0799 22.7648 26.99 23.1217C26.8674 23.613 25.8863 23.3673 25.8863 22.6303Z"
                                fill="white"
                              />
                            </g>
                            <defs>
                              <clipPath id="clip0_1_186">
                                <rect width="{58}" height="{58}" fill="white" />
                              </clipPath>
                            </defs>
                          </svg>