<svg width="200" height="61" viewBox="0 0 200 61" fill="none" xmlns="http://www.w3.org/2000/svg">
<g clip-path="url(#clip0_1_178)">
<path d="M72.5046 24.3687C74.1204 25.6211 74.9023 27.3431 74.9023 29.5347C74.9023 31.1523 74.4853 32.4568 73.5992 33.5005C72.7652 34.5441 71.5142 35.2746 69.8984 35.6921C74.0162 36.4226 76.049 38.6142 76.049 42.1626C76.049 44.4585 75.1629 46.2849 73.4428 47.6416C71.6706 48.9461 69.1686 49.6245 65.8848 49.6245H55.6685V22.5424H65.5721C68.5953 22.4902 70.8887 23.1164 72.5046 24.3687ZM65.7806 34.2832C67.5528 34.2832 68.9601 33.9179 69.9505 33.1352C70.9408 32.3525 71.41 31.3088 71.41 29.8999C71.41 28.5432 70.9408 27.4474 69.9505 26.7169C68.9601 25.9342 67.6049 25.5689 65.7806 25.5689H59.1608V34.2832H65.7806ZM65.8848 46.5458C68.0219 46.5458 69.6377 46.1283 70.7845 45.3456C71.9312 44.5629 72.5046 43.4149 72.5046 42.006C72.5046 40.4928 71.9312 39.2926 70.7845 38.5099C69.6377 37.675 68.0219 37.3097 65.8848 37.3097H59.1608V46.5458H65.8848Z" fill="#3E3E3E"/>
<path d="M82.4603 25.882C82.4603 26.456 82.2518 26.9778 81.8348 27.3431C81.4178 27.7083 80.9487 27.9171 80.3232 27.9171C79.6977 27.9171 79.2286 27.7083 78.8116 27.3431C78.3946 26.9778 78.1861 26.456 78.1861 25.882C78.1861 25.308 78.3946 24.7862 78.8116 24.4209C79.2286 24.0556 79.6977 23.8469 80.3232 23.8469C80.9487 23.8469 81.4699 24.0556 81.8348 24.4209C82.2518 24.8384 82.4603 25.308 82.4603 25.882ZM81.9911 29.8478V49.5723H78.7073V29.8478H81.9911Z" fill="#3E3E3E"/>
<path d="M100.443 29.8478V32.2481L88.0375 46.7024H100.964V49.6245H83.6591V47.2242L96.0125 32.8221H84.1804V29.9L100.443 29.8478Z" fill="#3E3E3E"/>
<path d="M113.005 32.9265H111.389C109.461 32.9265 108.053 33.5527 107.219 34.805C106.385 36.0574 105.968 37.6228 105.968 39.5013V49.5723H102.684V29.8478H105.551L105.968 32.8221C106.542 31.935 107.323 31.2045 108.262 30.6827C109.2 30.1609 110.503 29.8478 112.171 29.8478H113.109V32.9265H113.005Z" fill="#3E3E3E"/>
<path d="M117.383 30.8914C118.843 30.0565 120.511 29.639 122.439 29.639C124.316 29.639 125.984 30.0043 127.391 30.787C128.851 31.5176 129.945 32.6134 130.779 34.0223C131.613 35.4312 132.03 37.101 132.082 39.0317C132.082 39.2926 132.082 39.7622 131.978 40.3884H116.185V40.6493C116.237 42.58 116.862 44.1455 118.009 45.2934C119.208 46.4414 120.719 47.0154 122.596 47.0154C124.055 47.0154 125.306 46.6502 126.349 45.9718C127.391 45.2413 128.069 44.302 128.434 42.9975H131.77C131.353 45.0325 130.362 46.6502 128.746 47.9547C127.131 49.2592 125.202 49.8854 122.856 49.8854C120.824 49.8854 119.051 49.4679 117.54 48.633C116.028 47.7981 114.829 46.598 113.995 45.0847C113.161 43.5715 112.744 41.7973 112.744 39.8144C112.744 37.7793 113.161 36.0573 113.943 34.4919C114.777 32.8743 115.872 31.7263 117.383 30.8914ZM126.766 33.8135C125.619 32.8743 124.212 32.4046 122.439 32.4046C120.876 32.4046 119.52 32.8743 118.374 33.8657C117.175 34.8572 116.549 36.1095 116.393 37.675H128.694C128.538 36.0052 127.86 34.7528 126.766 33.8135Z" fill="#3E3E3E"/>
<path d="M153.245 34.2832C154.079 35.7964 154.496 37.6228 154.496 39.71C154.496 41.6929 154.079 43.4671 153.245 44.9803C152.411 46.4936 151.212 47.6938 149.752 48.5287C148.241 49.3636 146.573 49.781 144.696 49.781C143.028 49.781 141.621 49.4679 140.474 48.8939C139.275 48.32 138.389 47.5372 137.712 46.4936V57.243H134.428V29.7956H137.295L137.712 32.9786C139.432 30.7348 141.777 29.5869 144.696 29.5869C146.573 29.5869 148.293 30.0043 149.752 30.787C151.264 31.6219 152.411 32.7699 153.245 34.2832ZM151.16 39.71C151.16 37.5706 150.534 35.8486 149.283 34.4919C148.032 33.1352 146.416 32.4568 144.384 32.4568C143.081 32.4568 141.934 32.7699 140.891 33.3439C139.849 33.9701 139.067 34.805 138.494 35.9008C137.92 36.9966 137.66 38.249 137.66 39.6579C137.66 41.0667 137.92 42.3713 138.494 43.4671C139.067 44.5629 139.849 45.45 140.891 46.0762C141.934 46.7023 143.081 47.0154 144.384 47.0154C146.416 47.0154 148.032 46.3371 149.283 44.9803C150.534 43.6236 151.16 41.8495 151.16 39.71Z" fill="#3E3E3E"/>
<path d="M157.415 44.9804C156.581 43.4671 156.112 41.6929 156.112 39.71C156.112 37.7271 156.529 35.953 157.415 34.4397C158.249 32.9265 159.447 31.7263 161.011 30.8914C162.523 30.0565 164.295 29.639 166.276 29.639C168.256 29.639 170.029 30.0565 171.54 30.8914C173.052 31.7263 174.251 32.9265 175.137 34.4397C175.971 35.953 176.44 37.7271 176.44 39.71C176.44 41.6929 176.023 43.4671 175.137 44.9804C174.303 46.4936 173.104 47.6938 171.54 48.5287C170.029 49.3636 168.256 49.781 166.276 49.781C164.295 49.781 162.523 49.3636 161.011 48.5287C159.447 47.6938 158.249 46.4936 157.415 44.9804ZM172.166 43.4671C172.739 42.3713 173 41.1189 173 39.71C173 38.3011 172.739 37.0488 172.166 35.953C171.592 34.8572 170.811 33.9701 169.768 33.3439C168.726 32.7177 167.579 32.4046 166.224 32.4046C164.868 32.4046 163.722 32.7177 162.679 33.3439C161.637 33.9701 160.855 34.805 160.281 35.953C159.708 37.0488 159.447 38.3011 159.447 39.71C159.447 41.1189 159.708 42.3713 160.281 43.4671C160.855 44.5629 161.637 45.45 162.679 46.0762C163.722 46.7023 164.868 47.0154 166.224 47.0154C167.579 47.0154 168.726 46.7023 169.768 46.0762C170.811 45.45 171.592 44.5629 172.166 43.4671Z" fill="#3E3E3E"/>
<path d="M189.054 32.9265H187.438C185.51 32.9265 184.102 33.5527 183.268 34.805C182.434 36.0574 182.017 37.6228 182.017 39.5013V49.5723H178.733V29.8478H181.6L182.017 32.8221C182.591 31.935 183.372 31.2045 184.311 30.6827C185.249 30.1609 186.552 29.8478 188.22 29.8478H189.158V32.9265H189.054Z" fill="#3E3E3E"/>
<path d="M193.902 24.3165V29.8478H199.062V32.7699H193.902V44.4063C193.902 45.2412 194.058 45.8152 194.423 46.1805C194.735 46.5458 195.361 46.7023 196.143 46.7023H199.687V49.6245H195.934C194.006 49.6245 192.651 49.207 191.817 48.3721C190.983 47.5372 190.618 46.2327 190.618 44.4585V24.3687H193.902V24.3165V24.3165Z" fill="#3E3E3E"/>
<path d="M27.0524 48.0068L21.2145 44.6672L14.2299 40.5971V24.4209V16.3328V0.156555L10.7376 2.19163L0.208496 8.24466V32.509V36.5791V48.7374L10.7376 54.7904L21.2145 60.8435L31.7435 54.7904L35.2359 52.7553L34.037 52.077L27.0524 48.0068Z" fill="#A6A6A6"/>
<path d="M42.2205 36.5791V24.4209L31.7435 18.3679L21.2145 12.2626V28.491L28.2512 32.509L42.2205 40.4927V36.5791Z" fill="#A6A6A6"/>
<path d="M42.2205 48.7374V40.4927L28.2512 32.509V40.5971L42.2205 48.7374Z" fill="#7C7C7C"/>
</g>
<defs>
<clipPath id="clip0_1_178">
<rect width="200" height="61" fill="white"/>
</clipPath>
</defs>
</svg>
